                   Suicide Club 2001 DVDRip Xvid LKRG


RIPPER                           : fasamoo
Format                           : AVI
Format/Info                      : Audio Video Interleave
File size                        : 700 MiB
Duration                         : 1h 39mn
Overall bit rate                 : 983 Kbps
Writing application              : VirtualDubMod 1.5.4.1 (build 2178/release)
Writing library                  : VirtualDubMod build 2178/release
Language                         : Japanese
Subtitles                        : English(Hardsubbed)
Genre                            : Crime | Drama | Horror

Video
ID                               : 0
Format                           : MPEG-4 Visual
Format profile                   : Advanced Simple@L5
Format settings, BVOP            : Yes
Format settings, QPel            : No
Format settings, GMC             : No warppoints
Format settings, Matrix          : Custom
Codec ID                         : XVID
Codec ID/Hint                    : XviD
Duration                         : 1h 39mn
Bit rate                         : 862 Kbps
Width                            : 608 pixels
Height                           : 352 pixels
Display aspect ratio             : 16:9
Frame rate                       : 23.976 fps
Color space                      : YUV
Chroma subsampling               : 4:2:0
Bit depth                        : 8 bits
Scan type                        : Progressive
Bits/(Pixel*Frame)               : 0.168
Stream size                      : 613 MiB (88%)
Writing library                  : XviD 1.2.1 (UTC 2008-12-04)

Audio
ID                               : 1
Format                           : MPEG Audio
Format version                   : Version 1
Format profile                   : Layer 3
Mode                             : Joint stereo
Codec ID                         : 55
Codec ID/Hint                    : MP3
Duration                         : 1h 39mn
Bit rate mode                    : Variable
Bit rate                         : 109 Kbps
Nominal bit rate                 : 128 Kbps
Channel(s)                       : 2 channels
Sampling rate                    : 48.0 KHz
Stream size                      : 77.4 MiB (11%)
Alignment                        : Aligned on interleaves
Interleave, duration             : 24 ms (0.58 video frame)
Interleave, preload duration     : 561 ms
Writing library                  : LAME3.98r
Encoding settings                : -m j -V 4 -q 2 -lowpass 17 --abr 128


                                 PLOT

54 high school girls throw themselves in front of a subway train. This appears to be only the beginning of a string of suicides around the country. Does the new all-girl group Desert have anything to do with it? Detective Kuroda tries to find the answer, which isn't as simple as one could hope.

  







                                 IMBD
                     
                    http://www.imdb.com/title/tt0312843/
 
http://leetleech.org/images/68960866385277706014.png 
http://leetleech.org/images/80310587289687509256.png 
http://leetleech.org/images/72324141053578021364.png 
http://leetleech.org/images/70428444164239476011.png 
http://leetleech.org/images/11909552265821841606.png 
http://leetleech.org/images/51385628588379368118.png 
http://leetleech.org/images/73567682154872022143.png